<svg width="1024" height="1024" viewBox="0 0 1024 1024" fill="none" xmlns="http://www.w3.org/2000/svg">
<rect x="267.417" y="238.353" width="460.521" height="386.042" rx="32.5" fill="#092437" stroke="white" stroke-width="15"/>
<rect x="542.417" y="370.124" width="237.083" height="122.5" rx="32.5" fill="#092437" stroke="white" stroke-width="15"/>
<path d="M557.833 288.146H643.771C662.756 288.146 678.146 303.536 678.146 322.521V322.521" stroke="white" stroke-width="15" stroke-linecap="round"/>
<path d="M500.542 288.146L517.729 288.146" stroke="white" stroke-width="15" stroke-linecap="round"/>
<path d="M317.208 374.083L317.208 534.604C317.208 556.695 335.117 574.604 357.208 574.604L385.958 574.604" stroke="white" stroke-width="15" stroke-linecap="round"/>
<path d="M414.604 574.604H437.521" stroke="white" stroke-width="15" stroke-linecap="round"/>
<path d="M678.146 534.499H718.25" stroke="white" stroke-width="15" stroke-linecap="round"/>
<path d="M620.854 534.499H643.771" stroke="white" stroke-width="15" stroke-linecap="round"/>
<circle cx="603.667" cy="431.373" r="29.375" fill="white" stroke="white" stroke-width="10"/>
<path d="M353.268 234.187L357.698 228.449C359.793 226.335 361.788 224.313 363.697 222.378C372.478 213.477 379.433 206.428 385.805 200.814C393.527 194.011 399.882 189.794 406.753 187.327C420.695 182.321 438.597 183.762 477.561 191.674C536.867 203.717 580.172 178.519 605.105 152.885C607.702 150.216 611.91 148.85 616.054 149.325C620.147 149.795 622.948 151.852 624.07 154.616L657.088 235.95C659.09 240.881 655.461 246.271 650.138 246.271H435.646H359.203C352.974 246.271 349.46 239.117 353.268 234.187Z" fill="#36A769" stroke="white" stroke-width="15"/>
<path d="M152.486 853.17C149.019 853.17 146.332 852.217 144.426 850.31C142.606 848.403 141.696 845.717 141.696 842.25V770.1C141.696 766.547 142.692 763.86 144.686 762.04C146.679 760.133 149.496 759.18 153.136 759.18C156.169 759.18 158.552 759.787 160.286 761C162.106 762.127 163.752 764.033 165.226 766.72L193.176 816.9H188.626L216.446 766.72C218.006 764.033 219.652 762.127 221.386 761C223.206 759.787 225.632 759.18 228.666 759.18C232.132 759.18 234.776 760.133 236.596 762.04C238.502 763.86 239.456 766.547 239.456 770.1V842.25C239.456 845.717 238.546 848.403 236.726 850.31C234.906 852.217 232.219 853.17 228.666 853.17C225.199 853.17 222.512 852.217 220.606 850.31C218.786 848.403 217.876 845.717 217.876 842.25V797.53H220.606L199.676 833.93C198.462 835.837 197.162 837.267 195.776 838.22C194.476 839.173 192.699 839.65 190.446 839.65C188.279 839.65 186.502 839.173 185.116 838.22C183.729 837.267 182.472 835.837 181.346 833.93L160.286 797.4H163.276V842.25C163.276 845.717 162.366 848.403 160.546 850.31C158.726 852.217 156.039 853.17 152.486 853.17ZM290.242 853.43C283.135 853.43 276.938 852.087 271.652 849.4C266.365 846.713 262.248 842.857 259.302 837.83C256.355 832.803 254.882 826.867 254.882 820.02C254.882 814.82 255.705 810.183 257.352 806.11C258.998 801.95 261.382 798.44 264.502 795.58C267.622 792.633 271.348 790.423 275.682 788.95C280.015 787.39 284.868 786.61 290.242 786.61C297.348 786.61 303.545 787.953 308.832 790.64C314.118 793.327 318.192 797.183 321.052 802.21C323.998 807.15 325.472 813.087 325.472 820.02C325.472 825.133 324.648 829.77 323.002 833.93C321.355 838.09 318.972 841.643 315.852 844.59C312.818 847.45 309.092 849.66 304.672 851.22C300.338 852.693 295.528 853.43 290.242 853.43ZM290.242 836.4C292.582 836.4 294.662 835.837 296.482 834.71C298.302 833.497 299.688 831.72 300.642 829.38C301.682 826.953 302.202 823.833 302.202 820.02C302.202 814.213 301.075 810.053 298.822 807.54C296.568 804.94 293.708 803.64 290.242 803.64C287.902 803.64 285.822 804.203 284.002 805.33C282.182 806.457 280.752 808.233 279.712 810.66C278.672 813 278.152 816.12 278.152 820.02C278.152 825.74 279.278 829.9 281.532 832.5C283.785 835.1 286.688 836.4 290.242 836.4ZM350.618 853.17C346.978 853.17 344.161 852.173 342.168 850.18C340.175 848.187 339.178 845.283 339.178 841.47V798.44C339.178 794.713 340.131 791.853 342.038 789.86C344.031 787.867 346.848 786.87 350.488 786.87C354.128 786.87 356.901 787.867 358.808 789.86C360.715 791.853 361.668 794.713 361.668 798.44V804.55L360.238 799.22C362.318 795.147 365.265 792.027 369.078 789.86C372.978 787.693 377.398 786.61 382.338 786.61C387.451 786.61 391.655 787.607 394.948 789.6C398.241 791.507 400.711 794.54 402.358 798.7C404.005 802.773 404.828 807.93 404.828 814.17V841.47C404.828 845.283 403.831 848.187 401.838 850.18C399.845 852.173 396.985 853.17 393.258 853.17C389.531 853.17 386.671 852.173 384.678 850.18C382.685 848.187 381.688 845.283 381.688 841.47V815.08C381.688 811.18 380.995 808.407 379.608 806.76C378.308 805.113 376.358 804.29 373.758 804.29C370.291 804.29 367.518 805.417 365.438 807.67C363.358 809.837 362.318 812.783 362.318 816.51V841.47C362.318 849.27 358.418 853.17 350.618 853.17ZM455.959 853.43C448.159 853.43 441.399 852.087 435.679 849.4C430.046 846.627 425.713 842.727 422.679 837.7C419.646 832.673 418.129 826.737 418.129 819.89C418.129 813.303 419.559 807.54 422.419 802.6C425.366 797.573 429.353 793.673 434.379 790.9C439.493 788.04 445.299 786.61 451.799 786.61C456.566 786.61 460.899 787.39 464.799 788.95C468.699 790.423 472.036 792.633 474.809 795.58C477.583 798.44 479.663 801.907 481.049 805.98C482.523 810.053 483.259 814.603 483.259 819.63C483.259 821.363 482.783 822.663 481.829 823.53C480.876 824.31 479.359 824.7 477.279 824.7H437.499V813.78H466.359L464.279 815.47C464.279 812.263 463.846 809.663 462.979 807.67C462.113 805.677 460.813 804.16 459.079 803.12C457.433 802.08 455.353 801.56 452.839 801.56C450.153 801.56 447.813 802.21 445.819 803.51C443.913 804.723 442.439 806.543 441.399 808.97C440.359 811.397 439.839 814.43 439.839 818.07V819.24C439.839 825.393 441.183 829.813 443.869 832.5C446.643 835.1 450.889 836.4 456.609 836.4C458.516 836.4 460.683 836.183 463.109 835.75C465.623 835.23 468.006 834.537 470.259 833.67C472.513 832.803 474.463 832.673 476.109 833.28C477.756 833.8 479.013 834.753 479.879 836.14C480.833 837.44 481.353 838.957 481.439 840.69C481.526 842.337 481.136 843.983 480.269 845.63C479.403 847.19 477.973 848.403 475.979 849.27C472.946 850.657 469.696 851.697 466.229 852.39C462.849 853.083 459.426 853.43 455.959 853.43ZM513.78 876.57C511.093 876.57 508.926 875.877 507.28 874.49C505.633 873.103 504.593 871.283 504.16 869.03C503.813 866.777 504.203 864.393 505.33 861.88L514.04 843.03V852.39L491.81 801.56C490.683 798.96 490.293 796.533 490.64 794.28C491.073 792.027 492.243 790.25 494.15 788.95C496.056 787.563 498.656 786.87 501.95 786.87C504.723 786.87 506.933 787.52 508.58 788.82C510.313 790.033 511.873 792.46 513.26 796.1L526.26 829.9H521.84L535.62 795.97C537.006 792.417 538.566 790.033 540.3 788.82C542.12 787.52 544.546 786.87 547.58 786.87C550.18 786.87 552.26 787.563 553.82 788.95C555.38 790.25 556.333 792.027 556.68 794.28C557.026 796.533 556.636 798.96 555.51 801.56L526 867.86C524.44 871.327 522.706 873.623 520.8 874.75C518.98 875.963 516.64 876.57 513.78 876.57ZM581.235 853.17C577.769 853.17 575.082 852.217 573.175 850.31C571.355 848.403 570.445 845.717 570.445 842.25V770.1C570.445 766.547 571.442 763.86 573.435 762.04C575.429 760.133 578.245 759.18 581.885 759.18C584.919 759.18 587.302 759.787 589.035 761C590.855 762.127 592.502 764.033 593.975 766.72L621.925 816.9H617.375L645.195 766.72C646.755 764.033 648.402 762.127 650.135 761C651.955 759.787 654.382 759.18 657.415 759.18C660.882 759.18 663.525 760.133 665.345 762.04C667.252 763.86 668.205 766.547 668.205 770.1V842.25C668.205 845.717 667.295 848.403 665.475 850.31C663.655 852.217 660.969 853.17 657.415 853.17C653.949 853.17 651.262 852.217 649.355 850.31C647.535 848.403 646.625 845.717 646.625 842.25V797.53H649.355L628.425 833.93C627.212 835.837 625.912 837.267 624.525 838.22C623.225 839.173 621.449 839.65 619.195 839.65C617.029 839.65 615.252 839.173 613.865 838.22C612.479 837.267 611.222 835.837 610.095 833.93L589.035 797.4H592.025V842.25C592.025 845.717 591.115 848.403 589.295 850.31C587.475 852.217 584.789 853.17 581.235 853.17ZM708.851 853.43C703.911 853.43 699.535 852.52 695.721 850.7C691.995 848.88 689.048 846.41 686.881 843.29C684.801 840.083 683.761 836.443 683.761 832.37C683.761 827.69 684.975 824.007 687.401 821.32C689.828 818.633 693.728 816.727 699.101 815.6C704.475 814.387 711.625 813.78 720.551 813.78H727.701V824.7H720.551C717.171 824.7 714.355 824.96 712.101 825.48C709.935 825.913 708.331 826.65 707.291 827.69C706.251 828.643 705.731 829.9 705.731 831.46C705.731 833.453 706.425 835.1 707.811 836.4C709.285 837.7 711.365 838.35 714.051 838.35C716.218 838.35 718.125 837.873 719.771 836.92C721.505 835.967 722.891 834.667 723.931 833.02C724.971 831.287 725.491 829.293 725.491 827.04V811.96C725.491 808.84 724.668 806.63 723.021 805.33C721.461 804.03 718.731 803.38 714.831 803.38C712.751 803.38 710.411 803.64 707.811 804.16C705.211 804.593 702.308 805.417 699.101 806.63C696.761 807.497 694.768 807.627 693.121 807.02C691.475 806.413 690.175 805.373 689.221 803.9C688.355 802.427 687.921 800.823 687.921 799.09C688.008 797.357 688.571 795.71 689.611 794.15C690.738 792.59 692.428 791.377 694.681 790.51C698.841 788.95 702.655 787.91 706.121 787.39C709.675 786.87 712.925 786.61 715.871 786.61C722.978 786.61 728.828 787.65 733.421 789.73C738.101 791.723 741.568 794.843 743.821 799.09C746.161 803.25 747.331 808.623 747.331 815.21V841.47C747.331 845.283 746.421 848.187 744.601 850.18C742.781 852.173 740.138 853.17 736.671 853.17C733.118 853.17 730.388 852.173 728.481 850.18C726.661 848.187 725.751 845.283 725.751 841.47V838.09L726.531 839.91C726.098 842.683 725.101 845.067 723.541 847.06C721.981 849.053 719.945 850.613 717.431 851.74C714.918 852.867 712.058 853.43 708.851 853.43ZM797.151 853.43C790.651 853.43 785.278 852.433 781.031 850.44C776.871 848.447 773.751 845.457 771.671 841.47C769.591 837.397 768.551 832.327 768.551 826.26V805.07H764.131C761.358 805.07 759.191 804.333 757.631 802.86C756.158 801.387 755.421 799.263 755.421 796.49C755.421 793.717 756.158 791.637 757.631 790.25C759.191 788.777 761.358 788.04 764.131 788.04H768.551V779.98C768.551 776.167 769.548 773.263 771.541 771.27C773.535 769.277 776.395 768.28 780.121 768.28C783.848 768.28 786.708 769.277 788.701 771.27C790.695 773.263 791.691 776.167 791.691 779.98V788.04H802.351C805.211 788.04 807.378 788.777 808.851 790.25C810.411 791.637 811.191 793.717 811.191 796.49C811.191 799.263 810.411 801.387 808.851 802.86C807.378 804.333 805.211 805.07 802.351 805.07H791.691V825.48C791.691 828.687 792.428 831.07 793.901 832.63C795.461 834.103 797.888 834.84 801.181 834.84C802.395 834.84 803.565 834.71 804.691 834.45C805.818 834.19 806.858 834.06 807.811 834.06C809.198 833.973 810.325 834.407 811.191 835.36C812.058 836.227 812.491 838.263 812.491 841.47C812.491 844.07 812.101 846.28 811.321 848.1C810.541 849.833 809.155 851.09 807.161 851.87C805.948 852.303 804.301 852.65 802.221 852.91C800.141 853.257 798.451 853.43 797.151 853.43ZM856.272 853.43C848.472 853.43 841.712 852.087 835.992 849.4C830.358 846.627 826.025 842.727 822.992 837.7C819.958 832.673 818.442 826.737 818.442 819.89C818.442 813.303 819.872 807.54 822.732 802.6C825.678 797.573 829.665 793.673 834.692 790.9C839.805 788.04 845.612 786.61 852.112 786.61C856.878 786.61 861.212 787.39 865.112 788.95C869.012 790.423 872.348 792.633 875.122 795.58C877.895 798.44 879.975 801.907 881.362 805.98C882.835 810.053 883.572 814.603 883.572 819.63C883.572 821.363 883.095 822.663 882.142 823.53C881.188 824.31 879.672 824.7 877.592 824.7H837.812V813.78H866.672L864.592 815.47C864.592 812.263 864.158 809.663 863.292 807.67C862.425 805.677 861.125 804.16 859.392 803.12C857.745 802.08 855.665 801.56 853.152 801.56C850.465 801.56 848.125 802.21 846.132 803.51C844.225 804.723 842.752 806.543 841.712 808.97C840.672 811.397 840.152 814.43 840.152 818.07V819.24C840.152 825.393 841.495 829.813 844.182 832.5C846.955 835.1 851.202 836.4 856.922 836.4C858.828 836.4 860.995 836.183 863.422 835.75C865.935 835.23 868.318 834.537 870.572 833.67C872.825 832.803 874.775 832.673 876.422 833.28C878.068 833.8 879.325 834.753 880.192 836.14C881.145 837.44 881.665 838.957 881.752 840.69C881.838 842.337 881.448 843.983 880.582 845.63C879.715 847.19 878.285 848.403 876.292 849.27C873.258 850.657 870.008 851.697 866.542 852.39C863.162 853.083 859.738 853.43 856.272 853.43Z" fill="#36A769"/>
</svg>
